<svg width="495" height="195" viewBox="0 0 495 195" fill="none" xmlns="http://www.w3.org/2000/svg">
  <style>
    .bg { fill: #0d1117; stroke: #30363d; }
    .header { font: 600 16px 'Segoe UI', -apple-system, BlinkMacSystemFont, Ubuntu, sans-serif; fill: #40c463; }
    .lang-name { font: 600 12px 'Segoe UI', -apple-system, BlinkMacSystemFont, Ubuntu, sans-serif; fill: #ffffff; }
    .lang-pct { font: 400 11.5px 'Segoe UI', -apple-system, BlinkMacSystemFont, Ubuntu, sans-serif; fill: #8b949e; }
    .bar-bg { fill: #21262d; }
    @media (prefers-color-scheme: light) {
      .bg { fill: #ffffff; stroke: #e1e4e8; }
      .header { fill: #238636; }
      .lang-name { fill: #24292e; }
      .lang-pct { fill: #586069; }
      .bar-bg { fill: #eaecef; }
    }
  </style>
  <rect class="bg" x="0.5" y="0.5" width="494" height="194" rx="4.5" stroke-width="1"/>
  <text x="25" y="34" class="header">💻 Most Used Languages</text>
  <g transform="translate(25, 48)">
    <rect width="445" height="8" rx="4" class="bar-bg"/>
    <g clip-path="url(#bar-clip)">
      <rect x="0" y="0" width="140" height="8" fill="#3178c6"/><rect x="140" y="0" width="127" height="8" fill="#f1e05a"/><rect x="267" y="0" width="89" height="8" fill="#663399"/><rect x="356" y="0" width="38" height="8" fill="#384d54"/><rect x="394" y="0" width="25" height="8" fill="#00B4AB"/><rect x="419" y="0" width="26" height="8" fill="#4F5D95"/>
    </g>
  </g>
  <defs>
    <clipPath id="bar-clip">
      <rect width="445" height="8" rx="4"/>
    </clipPath>
  </defs>
  
    <g transform="translate(25, 78)">
      <circle cx="5" cy="6" r="4.5" fill="#3178c6"/>
      <text x="16" y="9" class="lang-name">TypeScript</text>
      <text x="206" y="9" text-anchor="end" class="lang-pct">31.4%</text>
      <rect x="16" y="15" width="190" height="4" rx="2" class="bar-bg"/>
      <rect x="16" y="15" width="60" height="4" rx="2" fill="#3178c6"/>
    </g>
    <g transform="translate(260, 78)">
      <circle cx="5" cy="6" r="4.5" fill="#f1e05a"/>
      <text x="16" y="9" class="lang-name">JavaScript</text>
      <text x="206" y="9" text-anchor="end" class="lang-pct">28.6%</text>
      <rect x="16" y="15" width="190" height="4" rx="2" class="bar-bg"/>
      <rect x="16" y="15" width="54" height="4" rx="2" fill="#f1e05a"/>
    </g>
    <g transform="translate(25, 112)">
      <circle cx="5" cy="6" r="4.5" fill="#663399"/>
      <text x="16" y="9" class="lang-name">CSS</text>
      <text x="206" y="9" text-anchor="end" class="lang-pct">20.0%</text>
      <rect x="16" y="15" width="190" height="4" rx="2" class="bar-bg"/>
      <rect x="16" y="15" width="38" height="4" rx="2" fill="#663399"/>
    </g>
    <g transform="translate(260, 112)">
      <circle cx="5" cy="6" r="4.5" fill="#384d54"/>
      <text x="16" y="9" class="lang-name">Dockerfile</text>
      <text x="206" y="9" text-anchor="end" class="lang-pct">8.6%</text>
      <rect x="16" y="15" width="190" height="4" rx="2" class="bar-bg"/>
      <rect x="16" y="15" width="16" height="4" rx="2" fill="#384d54"/>
    </g>
    <g transform="translate(25, 146)">
      <circle cx="5" cy="6" r="4.5" fill="#00B4AB"/>
      <text x="16" y="9" class="lang-name">Dart</text>
      <text x="206" y="9" text-anchor="end" class="lang-pct">5.7%</text>
      <rect x="16" y="15" width="190" height="4" rx="2" class="bar-bg"/>
      <rect x="16" y="15" width="11" height="4" rx="2" fill="#00B4AB"/>
    </g>
    <g transform="translate(260, 146)">
      <circle cx="5" cy="6" r="4.5" fill="#4F5D95"/>
      <text x="16" y="9" class="lang-name">PHP</text>
      <text x="206" y="9" text-anchor="end" class="lang-pct">5.7%</text>
      <rect x="16" y="15" width="190" height="4" rx="2" class="bar-bg"/>
      <rect x="16" y="15" width="11" height="4" rx="2" fill="#4F5D95"/>
    </g>
</svg>